# xmcd CD Database Entry
#
# Track frame offsets:
# 183
# 34990
# 56008
# 85930
# 116920
# 137275
# 188700
# 228795
# 264998
#
# Disc length: 4083 seconds
#
# Revision: 4
# Processed by: cddbd v1.4PL0 Copyright (c) Steve Scherf et al.
# Submitted via: tcd 2.0b
#
DISCID=710ff109
DTITLE=Thelonious Monk - And the Jazz Giants
DYEAR=1900
DGENRE=
TTITLE0=Bemsha swing
TTITLE1=Crepuscule with Nelie
TTITLE2=Nutty
TTITLE3=I mean you
TTITLE4=Pea eye
TTITLE5=In walked bud
TTITLE6=Little rootie tootie
TTITLE7=Played twice
TTITLE8=San Francisco holiday (worry later)
EXTD=
EXTT0=
EXTT1=
EXTT2=
EXTT3=
EXTT4=
EXTT5=
EXTT6=
EXTT7=
EXTT8=
PLAYORDER=
